# Created by Open3D 
# object name: reskin_palm_pad
# number of vertices: 180
# number of triangles: 116
v 88.888 0.114 0
vn 0 -0 1
v 91.881 2.857 0
vn 0 -0 1
v 3.931 0.114 0
vn 0 -0 1
v 0.458 3.296 0
vn 0 -0 1
v 0.573739 2.66097 0
vn 0 0 1
v 89.442 0.165626 0
vn 0 -0 1
v 89.9769 0.318488 0
vn 0 -0 1
v 90.4745 0.567346 0
vn 0 0 1
v 90.9177 0.90367 0
vn 0 0 1
v 91.2913 1.31593 0
vn 0 -0 1
v 91.5826 1.79 0
vn 0 0 1
v 91.7814 2.30963 0
vn 0 0 1
v 61.489 37.282 0
vn -0 0 1
v 94.416 31.842 0
vn 0 0 1
v 92.098 34.604 0
vn 0 0 1
v 94.308 32.831 0
vn 0 0 1
v 93.83 33.703 0
vn 0 0 1
v 93.054 34.326 0
vn 0 0 1
v 30.889 37.282 0
vn 0 0 1
v -2.039 31.842 0
vn 0 -0 1
v 0.279 34.604 0
vn 0 0 1
v -1.931 32.831 0
vn 0 0 1
v -1.452 33.703 0
vn 0 0 1
v -0.676 34.326 0
vn 0 0 1
v 0.804542 2.05815 0
vn 0 0 1
v 1.1425 1.50821 0
vn 0 0 1
v 1.57603 1.02997 0
vn 0 0 1
v 2.09028 0.639837 0
vn 0 0 1
v 2.66763 0.351173 0
vn 0 0 1
v 3.28829 0.173868 0
vn 0 0 1
v 88.888 0.114 0
vn -3.53099e-15 -1 -0
v 3.931 0.114 0
vn -3.53099e-15 -1 -0
v 88.888 0.114 -1.5
vn -3.53099e-15 -1 -0
v 3.931 0.114 -1.5
vn -3.53099e-15 -1 0
v 91.881 2.857 -1.5
vn 0.983837 -0.179068 0
v 91.881 2.857 0
vn 0.983837 -0.179068 0
v 91.7814 2.30963 -1.5
vn 0.983837 -0.179068 0
v 91.7814 2.30963 0
vn 0.983837 -0.179068 0
v 91.7814 2.30963 -1.5
vn 0.933965 -0.357364 0
v 91.7814 2.30963 0
vn 0.933965 -0.357364 0
v 91.5826 1.79 0
vn 0.933965 -0.357364 0
v 91.5826 1.79 -1.5
vn 0.933965 -0.357364 0
v 91.5826 1.79 -1.5
vn 0.852081 -0.52341 0
v 91.5826 1.79 0
vn 0.852081 -0.52341 0
v 91.2913 1.31593 0
vn 0.852081 -0.52341 0
v 91.2913 1.31593 -1.5
vn 0.852081 -0.52341 0
v 91.2913 1.31593 -1.5
vn 0.74099 -0.671516 0
v 91.2913 1.31593 0
vn 0.74099 -0.671516 0
v 90.9177 0.90367 0
vn 0.74099 -0.671516 0
v 90.9177 0.90367 -1.5
vn 0.74099 -0.671516 0
v 90.9177 0.90367 -1.5
vn 0.604501 -0.796605 0
v 90.9177 0.90367 0
vn 0.604501 -0.796605 0
v 90.4745 0.567346 0
vn 0.604501 -0.796605 0
v 90.4745 0.567346 -1.5
vn 0.604501 -0.796605 0
v 90.4745 0.567346 -1.5
vn 0.447291 -0.894388 0
v 90.4745 0.567346 0
vn 0.447291 -0.894388 0
v 89.9769 0.318488 0
vn 0.447291 -0.894388 0
v 89.9769 0.318488 -1.5
vn 0.447291 -0.894388 0
v 89.9769 0.318488 -1.5
vn 0.274751 -0.961516 0
v 89.9769 0.318488 0
vn 0.274751 -0.961516 0
v 89.442 0.165626 0
vn 0.274751 -0.961516 0
v 89.442 0.165626 -1.5
vn 0.274751 -0.961516 0
v 89.442 0.165626 -1.5
vn 0.0927921 -0.995686 0
v 89.442 0.165626 0
vn 0.0927921 -0.995686 0
v 88.888 0.114 -1.5
vn 0.0927921 -0.995686 0
v 88.888 0.114 0
vn 0.0927921 -0.995686 0
v 94.416 31.842 0
vn 0.996197 -0.0871264 0
v 91.881 2.857 0
vn 0.996197 -0.0871264 0
v 94.416 31.842 -1.5
vn 0.996197 -0.0871264 0
v 91.881 2.857 -1.5
vn 0.996197 -0.0871264 0
v 94.308 32.831 0
vn 0.99409 0.108556 0
v 94.416 31.842 0
vn 0.99409 0.108556 0
v 94.308 32.831 -1.5
vn 0.99409 0.108556 0
v 94.416 31.842 -1.5
vn 0.99409 0.108556 0
v 93.83 33.703 0
vn 0.876894 0.480683 0
v 94.308 32.831 0
vn 0.876894 0.480683 0
v 93.83 33.703 -1.5
vn 0.876894 0.480683 0
v 94.308 32.831 -1.5
vn 0.876894 0.480683 0
v 93.054 34.326 0
vn 0.626042 0.779789 0
v 93.83 33.703 0
vn 0.626042 0.779789 0
v 93.054 34.326 -1.5
vn 0.626042 0.779789 0
v 93.83 33.703 -1.5
vn 0.626042 0.779789 0
v 92.098 34.604 0
vn 0.279229 0.960225 0
v 93.054 34.326 0
vn 0.279229 0.960225 0
v 92.098 34.604 -1.5
vn 0.279229 0.960225 0
v 93.054 34.326 -1.5
vn 0.279229 0.960225 0
v 61.489 37.282 0
vn 0.0871577 0.996195 0
v 92.098 34.604 0
vn 0.0871577 0.996195 0
v 61.489 37.282 -1.5
vn 0.0871577 0.996195 0
v 92.098 34.604 -1.5
vn 0.0871577 0.996195 0
v 30.889 37.282 0
vn -0 1 0
v 61.489 37.282 0
vn -0 1 0
v 30.889 37.282 -1.5
vn -0 1 0
v 61.489 37.282 -1.5
vn 0 1 0
v 0.279 34.604 0
vn -0.0871548 0.996195 0
v 30.889 37.282 0
vn -0.0871548 0.996195 0
v 0.279 34.604 -1.5
vn -0.0871548 0.996195 0
v 30.889 37.282 -1.5
vn -0.0871548 0.996195 0
v -0.676 34.326 0
vn -0.279498 0.960146 0
v 0.279 34.604 0
vn -0.279498 0.960146 0
v -0.676 34.326 -1.5
vn -0.279498 0.960146 0
v 0.279 34.604 -1.5
vn -0.279498 0.960146 0
v -1.452 33.703 0
vn -0.626042 0.779789 0
v -0.676 34.326 0
vn -0.626042 0.779789 0
v -1.452 33.703 -1.5
vn -0.626042 0.779789 0
v -0.676 34.326 -1.5
vn -0.626042 0.779789 0
v -1.931 32.831 0
vn -0.87647 0.481456 0
v -1.452 33.703 0
vn -0.87647 0.481456 0
v -1.931 32.831 -1.5
vn -0.87647 0.481456 0
v -1.452 33.703 -1.5
vn -0.87647 0.481456 0
v -2.039 31.842 0
vn -0.99409 0.108556 0
v -1.931 32.831 0
vn -0.99409 0.108556 0
v -2.039 31.842 -1.5
vn -0.99409 0.108556 0
v -1.931 32.831 -1.5
vn -0.99409 0.108556 0
v 0.458 3.296 0
vn -0.996196 -0.0871401 -0
v -2.039 31.842 0
vn -0.996196 -0.0871401 -0
v 0.458 3.296 -1.5
vn -0.996196 -0.0871401 -0
v -2.039 31.842 -1.5
vn -0.996196 -0.0871401 0
v 3.931 0.114 -1.5
vn -0.0927486 -0.99569 0
v 3.931 0.114 0
vn -0.0927486 -0.99569 0
v 3.28829 0.173868 -1.5
vn -0.0927486 -0.99569 0
v 3.28829 0.173868 0
vn -0.0927486 -0.99569 0
v 3.28829 0.173868 -1.5
vn -0.274682 -0.961535 0
v 3.28829 0.173868 0
vn -0.274682 -0.961535 0
v 2.66763 0.351173 -1.5
vn -0.274682 -0.961535 0
v 2.66763 0.351173 0
vn -0.274682 -0.961535 0
v 2.66763 0.351173 -1.5
vn -0.447202 -0.894433 0
v 2.66763 0.351173 0
vn -0.447202 -0.894433 0
v 2.09028 0.639837 -1.5
vn -0.447202 -0.894433 0
v 2.09028 0.639837 0
vn -0.447202 -0.894433 0
v 2.09028 0.639837 -1.5
vn -0.604399 -0.796682 0
v 2.09028 0.639837 0
vn -0.604399 -0.796682 0
v 1.57603 1.02997 -1.5
vn -0.604399 -0.796682 0
v 1.57603 1.02997 0
vn -0.604399 -0.796682 0
v 1.57603 1.02997 -1.5
vn -0.740885 -0.671631 0
v 1.57603 1.02997 0
vn -0.740885 -0.671631 0
v 1.1425 1.50821 -1.5
vn -0.740885 -0.671631 0
v 1.1425 1.50821 0
vn -0.740885 -0.671631 0
v 1.1425 1.50821 -1.5
vn -0.851985 -0.523567 0
v 1.1425 1.50821 0
vn -0.851985 -0.523567 0
v 0.804542 2.05815 -1.5
vn -0.851985 -0.523567 0
v 0.804542 2.05815 0
vn -0.851985 -0.523567 0
v 0.804542 2.05815 -1.5
vn -0.933889 -0.357562 0
v 0.804542 2.05815 0
vn -0.933889 -0.357562 0
v 0.573739 2.66097 -1.5
vn -0.933889 -0.357562 0
v 0.573739 2.66097 0
vn -0.933889 -0.357562 0
v 0.573739 2.66097 -1.5
vn -0.983794 -0.179304 0
v 0.573739 2.66097 0
vn -0.983794 -0.179304 0
v 0.458 3.296 -1.5
vn -0.983794 -0.179304 0
v 0.458 3.296 0
vn -0.983794 -0.179304 0
v 3.931 0.114 -1.5
vn 0 0 -1
v 91.881 2.857 -1.5
vn 0 0 -1
v 88.888 0.114 -1.5
vn 0 0 -1
v 91.7814 2.30963 -1.5
vn 0 0 -1
v 91.5826 1.79 -1.5
vn 0 0 -1
v 3.28829 0.173868 -1.5
vn 0 0 -1
v 2.66763 0.351173 -1.5
vn 0 0 -1
v 2.09028 0.639837 -1.5
vn 0 0 -1
v 1.57603 1.02997 -1.5
vn 0 0 -1
v 1.1425 1.50821 -1.5
vn 0 0 -1
v 0.804542 2.05815 -1.5
vn 0 0 -1
v 0.573739 2.66097 -1.5
vn 0 0 -1
v 0.458 3.296 -1.5
vn 0 0 -1
v -2.039 31.842 -1.5
vn 0 0 -1
v 30.889 37.282 -1.5
vn 0 0 -1
v 61.489 37.282 -1.5
vn 0 0 -1
v 94.416 31.842 -1.5
vn 0 0 -1
v 92.098 34.604 -1.5
vn 0 0 -1
v 94.308 32.831 -1.5
vn 0 0 -1
v 93.83 33.703 -1.5
vn 0 0 -1
v 93.054 34.326 -1.5
vn 0 0 -1
v 0.279 34.604 -1.5
vn 0 0 -1
v -1.931 32.831 -1.5
vn 0 0 -1
v -1.452 33.703 -1.5
vn 0 0 -1
v -0.676 34.326 -1.5
vn 0 0 -1
v 91.2913 1.31593 -1.5
vn 0 0 -1
v 90.9177 0.90367 -1.5
vn 0 0 -1
v 90.4745 0.567346 -1.5
vn 0 0 -1
v 89.9769 0.318488 -1.5
vn 0 0 -1
v 89.442 0.165626 -1.5
vn 0 0 -1
f 1//1 2//2 3//3
f 3//3 2//2 4//4
f 3//3 4//4 5//5
f 6//6 7//7 1//1
f 1//1 7//7 8//8
f 1//1 8//8 9//9
f 9//9 10//10 1//1
f 1//1 10//10 11//11
f 1//1 11//11 12//12
f 12//12 2//2 1//1
f 4//4 2//2 13//13
f 13//13 2//2 14//14
f 13//13 14//14 15//15
f 15//15 14//14 16//16
f 15//15 16//16 17//17
f 17//17 18//18 15//15
f 13//13 19//19 4//4
f 4//4 19//19 20//20
f 20//20 19//19 21//21
f 20//20 21//21 22//22
f 22//22 21//21 23//23
f 23//23 21//21 24//24
f 5//5 25//25 3//3
f 3//3 25//25 26//26
f 3//3 26//26 27//27
f 27//27 28//28 3//3
f 3//3 28//28 29//29
f 3//3 29//29 30//30
f 31//31 32//32 33//33
f 33//33 32//32 34//34
f 35//35 36//36 37//37
f 37//37 36//36 38//38
f 39//39 40//40 41//41
f 39//39 41//41 42//42
f 43//43 44//44 45//45
f 43//43 45//45 46//46
f 47//47 48//48 49//49
f 47//47 49//49 50//50
f 51//51 52//52 53//53
f 51//51 53//53 54//54
f 55//55 56//56 57//57
f 55//55 57//57 58//58
f 59//59 60//60 61//61
f 59//59 61//61 62//62
f 63//63 64//64 65//65
f 65//65 64//64 66//66
f 67//67 68//68 69//69
f 69//69 68//68 70//70
f 71//71 72//72 73//73
f 73//73 72//72 74//74
f 75//75 76//76 77//77
f 77//77 76//76 78//78
f 79//79 80//80 81//81
f 81//81 80//80 82//82
f 83//83 84//84 85//85
f 85//85 84//84 86//86
f 87//87 88//88 89//89
f 89//89 88//88 90//90
f 91//91 92//92 93//93
f 93//93 92//92 94//94
f 95//95 96//96 97//97
f 97//97 96//96 98//98
f 99//99 100//100 101//101
f 101//101 100//100 102//102
f 103//103 104//104 105//105
f 105//105 104//104 106//106
f 107//107 108//108 109//109
f 109//109 108//108 110//110
f 111//111 112//112 113//113
f 113//113 112//112 114//114
f 115//115 116//116 117//117
f 117//117 116//116 118//118
f 119//119 120//120 121//121
f 121//121 120//120 122//122
f 123//123 124//124 125//125
f 125//125 124//124 126//126
f 127//127 128//128 129//129
f 129//129 128//128 130//130
f 131//131 132//132 133//133
f 133//133 132//132 134//134
f 135//135 136//136 137//137
f 137//137 136//136 138//138
f 139//139 140//140 141//141
f 141//141 140//140 142//142
f 143//143 144//144 145//145
f 145//145 144//144 146//146
f 147//147 148//148 149//149
f 149//149 148//148 150//150
f 151//151 152//152 153//153
f 153//153 152//152 154//154
f 153//153 154//154 155//155
f 156//156 157//157 151//151
f 151//151 157//157 158//158
f 151//151 158//158 159//159
f 159//159 160//160 151//151
f 151//151 160//160 161//161
f 151//151 161//161 162//162
f 162//162 163//163 151//151
f 151//151 163//163 152//152
f 164//164 165//165 163//163
f 163//163 165//165 166//166
f 163//163 166//166 152//152
f 152//152 166//166 167//167
f 167//167 166//166 168//168
f 167//167 168//168 169//169
f 169//169 168//168 170//170
f 170//170 168//168 171//171
f 165//165 164//164 172//172
f 172//172 164//164 173//173
f 172//172 173//173 174//174
f 174//174 175//175 172//172
f 155//155 176//176 153//153
f 153//153 176//176 177//177
f 153//153 177//177 178//178
f 178//178 179//179 153//153
f 153//153 179//179 180//180
